<svg width="209" height="44" viewBox="0 0 209 44" fill="none" xmlns="http://www.w3.org/2000/svg">
<rect x="22.5222" y="-0.477783" width="14.1282" height="14.1282" rx="3" transform="rotate(45 22.5222 -0.477783)" fill="#2563EB"/>
<rect x="35.0099" y="12.01" width="14.1282" height="14.1282" rx="3" transform="rotate(45 35.0099 12.01)" fill="#2563EB"/>
<rect x="22.5222" y="24.4976" width="14.1282" height="14.1282" rx="3" transform="rotate(45 22.5222 24.4976)" fill="#2563EB"/>
<rect x="9.99014" y="11.9656" width="14.1282" height="14.1282" rx="7.0641" transform="rotate(45 9.99014 11.9656)" fill="#2563EB"/>
<path d="M65.3466 31.5H58.6435V12.5909H65.402C67.304 12.5909 68.9413 12.9695 70.3139 13.7266C71.6866 14.4775 72.7422 15.5578 73.4808 16.9673C74.2256 18.3769 74.598 20.0634 74.598 22.027C74.598 23.9967 74.2256 25.6894 73.4808 27.1051C72.7422 28.5208 71.6804 29.6072 70.2955 30.3643C68.9167 31.1214 67.267 31.5 65.3466 31.5ZM62.6413 28.0746H65.1804C66.3622 28.0746 67.3563 27.8653 68.1626 27.4467C68.9751 27.022 69.5845 26.3665 69.9908 25.4801C70.4032 24.5876 70.6094 23.4366 70.6094 22.027C70.6094 20.6297 70.4032 19.4879 69.9908 18.6016C69.5845 17.7152 68.9782 17.0627 68.1719 16.6442C67.3655 16.2256 66.3714 16.0163 65.1896 16.0163H62.6413V28.0746ZM76.7056 31.5V17.3182H80.6389V31.5H76.7056ZM78.6815 15.4901C78.0967 15.4901 77.5951 15.2962 77.1765 14.9084C76.7641 14.5144 76.5579 14.0436 76.5579 13.4957C76.5579 12.9541 76.7641 12.4893 77.1765 12.1016C77.5951 11.7076 78.0967 11.5107 78.6815 11.5107C79.2662 11.5107 79.7648 11.7076 80.1772 12.1016C80.5958 12.4893 80.805 12.9541 80.805 13.4957C80.805 14.0436 80.5958 14.5144 80.1772 14.9084C79.7648 15.2962 79.2662 15.4901 78.6815 15.4901ZM96.2312 17.3182L91.2731 31.5H86.8413L81.8832 17.3182H86.038L88.9833 27.4652H89.1311L92.0671 17.3182H96.2312ZM103.47 31.777C102.011 31.777 100.756 31.4815 99.703 30.8906C98.6566 30.2936 97.8502 29.4503 97.2839 28.3608C96.7176 27.2652 96.4345 25.9695 96.4345 24.4737C96.4345 23.0149 96.7176 21.7346 97.2839 20.6328C97.8502 19.531 98.6473 18.6723 99.6753 18.0568C100.709 17.4413 101.922 17.1335 103.313 17.1335C104.249 17.1335 105.12 17.2843 105.926 17.5859C106.738 17.8814 107.446 18.3277 108.05 18.9247C108.659 19.5218 109.133 20.2727 109.471 21.1776C109.81 22.0762 109.979 23.1288 109.979 24.3352V25.4155H98.0041V22.978H106.277C106.277 22.4117 106.154 21.91 105.908 21.473C105.661 21.036 105.32 20.6944 104.883 20.4482C104.452 20.1958 103.95 20.0696 103.378 20.0696C102.781 20.0696 102.251 20.2081 101.79 20.4851C101.334 20.7559 100.977 21.1222 100.719 21.5838C100.46 22.0393 100.328 22.5471 100.322 23.1072V25.4247C100.322 26.1264 100.451 26.7327 100.709 27.2436C100.974 27.7545 101.346 28.1484 101.827 28.4254C102.307 28.7024 102.876 28.8409 103.535 28.8409C103.972 28.8409 104.372 28.7794 104.735 28.6562C105.098 28.5331 105.409 28.3485 105.667 28.1023C105.926 27.8561 106.123 27.5545 106.258 27.1974L109.896 27.4375C109.711 28.3116 109.333 29.0748 108.76 29.7273C108.194 30.3736 107.462 30.8783 106.563 31.2415C105.671 31.5985 104.64 31.777 103.47 31.777ZM111.766 31.5V17.3182H115.579V19.7926H115.727C115.985 18.9124 116.419 18.2476 117.029 17.7983C117.638 17.3428 118.34 17.1151 119.134 17.1151C119.331 17.1151 119.543 17.1274 119.771 17.152C119.999 17.1766 120.199 17.2105 120.371 17.2536V20.7436C120.186 20.6882 119.931 20.639 119.605 20.5959C119.279 20.5528 118.98 20.5312 118.709 20.5312C118.131 20.5312 117.614 20.6574 117.158 20.9098C116.709 21.156 116.352 21.5007 116.087 21.9439C115.829 22.3871 115.699 22.898 115.699 23.4766V31.5H111.766ZM133.424 21.3622L129.824 21.5838C129.762 21.276 129.63 20.9991 129.427 20.7528C129.223 20.5005 128.956 20.3004 128.623 20.1527C128.297 19.9988 127.906 19.9219 127.451 19.9219C126.841 19.9219 126.327 20.0511 125.909 20.3097C125.49 20.562 125.281 20.9006 125.281 21.3253C125.281 21.6638 125.416 21.95 125.687 22.1839C125.958 22.4179 126.423 22.6056 127.081 22.7472L129.648 23.2642C131.027 23.5473 132.055 24.0028 132.732 24.6307C133.409 25.2585 133.748 26.0833 133.748 27.1051C133.748 28.0346 133.474 28.8501 132.926 29.5518C132.384 30.2536 131.639 30.8014 130.691 31.1953C129.75 31.5831 128.663 31.777 127.432 31.777C125.555 31.777 124.059 31.3861 122.945 30.6044C121.837 29.8165 121.188 28.7455 120.997 27.3913L124.865 27.1882C124.982 27.7607 125.266 28.1977 125.715 28.4993C126.164 28.7947 126.74 28.9425 127.441 28.9425C128.131 28.9425 128.685 28.8101 129.103 28.5455C129.528 28.2746 129.744 27.9268 129.75 27.5021C129.744 27.1451 129.593 26.8527 129.297 26.625C129.002 26.3911 128.546 26.2126 127.931 26.0895L125.475 25.6001C124.09 25.3232 123.059 24.843 122.382 24.1598C121.711 23.4766 121.375 22.6056 121.375 21.5469C121.375 20.6359 121.622 19.8511 122.114 19.1925C122.613 18.5339 123.311 18.026 124.21 17.669C125.115 17.312 126.173 17.1335 127.386 17.1335C129.177 17.1335 130.587 17.5121 131.615 18.2692C132.649 19.0263 133.252 20.0573 133.424 21.3622ZM141.907 31.777C140.449 31.777 139.193 31.4815 138.14 30.8906C137.094 30.2936 136.288 29.4503 135.721 28.3608C135.155 27.2652 134.872 25.9695 134.872 24.4737C134.872 23.0149 135.155 21.7346 135.721 20.6328C136.288 19.531 137.085 18.6723 138.113 18.0568C139.147 17.4413 140.359 17.1335 141.75 17.1335C142.686 17.1335 143.557 17.2843 144.363 17.5859C145.176 17.8814 145.884 18.3277 146.487 18.9247C147.096 19.5218 147.57 20.2727 147.909 21.1776C148.247 22.0762 148.417 23.1288 148.417 24.3352V25.4155H136.441V22.978H144.714C144.714 22.4117 144.591 21.91 144.345 21.473C144.099 21.036 143.757 20.6944 143.32 20.4482C142.889 20.1958 142.387 20.0696 141.815 20.0696C141.218 20.0696 140.689 20.2081 140.227 20.4851C139.771 20.7559 139.414 21.1222 139.156 21.5838C138.897 22.0393 138.765 22.5471 138.759 23.1072V25.4247C138.759 26.1264 138.888 26.7327 139.147 27.2436C139.411 27.7545 139.784 28.1484 140.264 28.4254C140.744 28.7024 141.313 28.8409 141.972 28.8409C142.409 28.8409 142.809 28.7794 143.172 28.6562C143.535 28.5331 143.846 28.3485 144.105 28.1023C144.363 27.8561 144.56 27.5545 144.696 27.1974L148.333 27.4375C148.149 28.3116 147.77 29.0748 147.198 29.7273C146.632 30.3736 145.899 30.8783 145 31.2415C144.108 31.5985 143.077 31.777 141.907 31.777ZM153.536 31.5H149.252L155.78 12.5909H160.932L167.451 31.5H163.166L158.43 16.9119H158.282L153.536 31.5ZM153.269 24.0675H163.388V27.1882H153.269V24.0675ZM172.944 12.5909V31.5H168.946V12.5909H172.944Z" fill="#1C1C1C"/>
</svg>
